<svg xmlns="http://www.w3.org/2000/svg" xmlns:xlink="http://www.w3.org/1999/xlink" viewBox="0,0,256,256" width="240px" height="240px" fill-rule="nonzero"><g fill="#000000" fill-rule="nonzero" stroke="none" stroke-width="1" stroke-linecap="butt" stroke-linejoin="miter" stroke-miterlimit="10" stroke-dasharray="" stroke-dashoffset="0" font-family="none" font-weight="none" font-size="none" text-anchor="none" style="mix-blend-mode: normal"><g transform="scale(10.66667,10.66667)"><path d="M22.863,13.564c-0.053,0.131 -0.27,1.67 -1.504,1.746c-0.654,0.04 -1.321,-0.481 -1.235,-1.416c0.153,-1.673 0.632,-1.135 0.277,-2.92c-0.229,-1.152 -0.528,-1.449 -0.246,-2.323c0.198,-0.612 1.366,-0.726 1.845,-2.439v0c-1.686,0.37 -3.219,0.842 -4.214,0.223c-0.824,-0.513 -1.29,-1.282 -0.818,-2.092c0.227,-0.391 1.238,-0.787 1.898,-1.224c1.57,-1.04 0.894,-3.65 0.521,-2.928c-0.704,1.365 -2.242,1.284 -4.125,1.318c-1.027,0.135 -0.89,1.609 -1.918,1.781c-1.027,0.171 -1.678,-0.514 -2.26,-0.205c-0.582,0.308 -0.685,2.602 -1.644,2.602c-0.959,0 -1.727,-0.232 -1.609,-1.233c0.091,-0.784 -0.29,-1.335 -1.516,-1.873c-0.314,-0.138 0.269,1.48 -0.848,2.407c-0.377,0.313 -1.498,0.314 -0.342,1.008c0.557,0.335 1.37,0.729 1.199,1.015c-0.172,0.286 -0.925,1.04 -1.336,0.492c-0.307,0.753 -0.445,0.89 -1.028,1.096c-0.582,0.205 -1.951,-0.343 -2.225,-0.651c-0.274,-0.308 -0.187,2.105 0.558,3.204c0.716,1.056 1.386,1.795 1.086,3.302c-0.119,0.595 -0.753,1.746 -1.849,1.541c-1.096,-0.206 0.377,1.644 1.678,2.123c1.301,0.479 1.062,2.157 0.411,2.774c-0.651,0.617 1.609,0.205 2.774,0.959c1.165,0.754 1.096,1.849 1.541,1.815c0.445,-0.034 1.096,-0.651 1.609,-0.582c0.514,0.068 1.062,0.549 1.815,0.583c0.753,0.034 0.542,-0.862 1.289,-1.091c0.718,-0.22 1.43,0.306 1.759,0.611c0.461,0.427 1.006,0.813 1.608,0.813c0.481,0 -0.171,-1.053 0.753,-1.772c0.925,-0.719 1.832,-0.489 2.26,-1.027c0.154,-0.193 -0.753,-0.89 -0.342,-1.678c0.411,-0.788 1.37,-0.514 1.678,-0.993c0.308,-0.479 -0.07,-0.874 0.958,-1.456c1.027,-0.582 1.769,-0.978 1.85,-1.455c0.09,-0.526 -0.169,-2.396 -0.308,-2.055zM11.626,20.409c-3.402,0 -6.159,-2.758 -6.159,-6.159c0,-3.401 2.758,-6.159 6.159,-6.159c3.401,0 6.159,2.758 6.159,6.159c0,3.401 -2.757,6.159 -6.159,6.159z"></path></g></g></svg>