<?xml version="1.0" encoding="utf-8"?>
<!-- Generator: Adobe Illustrator 27.0.1, SVG Export Plug-In . SVG Version: 6.00 Build 0)  -->
<svg version="1.1" id="图层_1" xmlns="http://www.w3.org/2000/svg" xmlns:xlink="http://www.w3.org/1999/xlink" x="0px" y="0px"
	 viewBox="0 0 256 256" style="enable-background:new 0 0 256 256;" xml:space="preserve">
<style type="text/css">
	.st0{fill-rule:evenodd;clip-rule:evenodd;}
	.st1{fill-rule:evenodd;clip-rule:evenodd;fill:none;}
</style>
<g>
	<g id="图层_x0020_1">
		<g id="_2425739286480">
			<path class="st0" d="M128,0l105.6,61l-30.4,17.5c0-0.9-0.1-1.7-0.3-2.6c-0.4-1.6-1.3-3.2-2.6-4.7l-4.6-5.3l-5.3-4.6
				c-1.4-1.3-3-2.1-4.7-2.6c-1.6-0.4-3.1-0.4-4.7,0c-1.7,0.5-3.2,1.4-4.5,2.8c-0.4,0.4-0.7,0.9-1,1.3l-7.6-4.4L128,35.5L87.9,58.6
				l-13.3,7.7l-9.3-7.9l1.9,12.2l-14.1,8.1L22.4,61L128,0L128,0z M238.9,70.1V192l-105.6,61v-35.5l34.8-20.1l40.1-23.1V128V87.8
				L238.9,70.1L238.9,70.1z M122.7,253L17.1,192V70.1l30.7,17.7v40l-14.8,5.3l14.8,7.5v33.5l12.8,7.4c-0.4,3.3-0.6,7-0.8,11.6
				l-0.5,9.1l9.1-0.5c9.8-0.5,15.9-0.8,21.7-3.1l32.5,18.8V253L122.7,253z"/>
			<path class="st0" d="M138.4,76.1c2.7-2,7.8-2.7,11.8-3.6c-13.3-4.9-21.5-3.4-22.7-3.2c-0.1,0.9-0.5,4.3-2,6.8
				C130.9,75.1,134.1,75.1,138.4,76.1L138.4,76.1z M76.3,78c1.3,8.4-2.1,22-2.8,23.7c-0.7,1.7-1.8,3.3-4.3,10.8
				c-2.5,7.5-2.6,20.7-0.7,25c-4.6-3.3-10.3-5.1-15.8-3.1c9.2,4.7,15.8,17,19.9,22.4c4.1,5.3,2.2,2.9,3.5,4.3
				c8.3,8.8,14,13.9,25.5,17.4c7.3,2.2,14.9,3,24.7-0.5c10.6-3.8,26-23.7,17.4-32.3c-2.4,1.3-5,2.4-7.7,3c-1.3,0.3-2.7,0.4-4,0.4
				c-12.1-0.1-22.2-12.4-22.6-23.7c-0.4-11.3,8.6-20.1,17-24.5c0.8-1.1,1.8-2.1,3.1-2.9c1.2-0.7,2.6-1.2,4.2-1.3
				c-3.6-1.1-6-1.4-11.7-0.5c5.8-4.3,10.4-7.7,19.3-9.2c0.3-1.4,1-2.7,2.6-4.2c-13.6-2.6-32.3-1.8-48.5,19.6
				c5.7-10.9,7.2-14.4,19.5-25.2c2.3-2,6.4-7.3,5.2-14.1c-3.7,6-10.4,9.3-19.6,13.4c-6.9,3.1-13.2,8.1-17.9,14.6
				c-0.6-2.6-1.8-8.8-5.8-12.5L76.3,78L76.3,78z M67.7,194.1c0.6-12.3,0.8-18.1,5.9-25.5c6.8,7.2,14,13.1,24.2,16.1
				C87.8,193.1,82.4,193.3,67.7,194.1L67.7,194.1z M116.6,125l9.2-8.9c2.1-2.1,5.2-7.2,6.4-11c0.2-0.8,1.3-1.5,2.7-1.6l6.9-0.1
				l0.4-1.2c0.2-0.7,0.5-0.8,1.1-0.8l4.4,0c0.2,0,0.4-0.2,0.4-0.4l0-9.8c0-1.9,0-2.9,1.5-4.1l3.1-2.6l7.9,8.1l20.2-19.8l1.3-4.9
				c0.5-1.9,1.9-1.9,3.4-0.6l4.8,4.2l4.2,4.8c1.3,1.5,1.4,2.9-0.6,3.4l-4.9,1.3l-19.8,20.2l8.1,7.9l-2.6,3.1
				c-1.3,1.5-2.2,1.5-4.1,1.5l-9.8,0c-0.2,0-0.4,0.2-0.4,0.4l0,4.4c0,0.6-0.1,0.9-0.8,1.1l-1.2,0.4l-0.1,6.9c0,1.4-0.7,2.5-1.6,2.7
				c-3.8,1.1-8.9,4.2-11,6.4l-1.5,1.6l-3.7,2.1c-1.1,0.6-2.1,1.1-3.1,1.5c-0.9,0.3-1.8,0.6-2.8,0.8l0,0c-0.6,0.1-1.2,0.2-1.6,0.2
				c-3.8,0.1-7.3-1.4-10.2-3.9c-3-2.7-5.1-6.5-5.8-10.6C116.7,126.6,116.6,125.8,116.6,125C116.6,125.1,116.6,125,116.6,125
				L116.6,125z M110.5,188.2c21.4,8,42.4,3,55.3-9.8c-1,1.8-2.1,3.8-3.3,5.5c16-9.2,35.5-35.4,21.9-62.5c2.5,2,4.6,4.5,6.4,7.9
				c0.1-11.5-3.1-22.1-9.4-30.7l-2.3,2.3l7.7,7.5l-6.7,8.1c-3.3,4-5.4,4-9.4,4l-3.6,0c-0.3,1.2-1,2.5-1.8,3.4l-0.1,3
				c0,1.9-0.6,3.7-1.4,5.1c-1.2,2.1-3.1,3.6-5.2,4.2v0c-2.2,0.7-6.4,2.9-8,4.5l-0.8,0.9c1.6,1.8,2.7,3.8,3.3,6.1
				c1.2,4.4,0.4,9.3-1.5,14.1C144.9,179.2,129.4,188.7,110.5,188.2L110.5,188.2z"/>
		</g>
	</g>
	<polygon class="st1" points="128,0 17.1,64 17.1,192 128,256 238.9,192 238.9,64 	"/>
</g>
</svg>
