<svg id="图层_35_复制" data-name="图层 35_复制" xmlns="http://www.w3.org/2000/svg" viewBox="0 0 240 240"><g id="图层_20_复制" data-name="图层 20_复制"><path d="M155.58,103a32.63,32.63,0,0,0,7.64-13.09c4.71-15.89-5.1-29.66-6.55-31.62a63.83,63.83,0,0,1,18.54,4.36,72.41,72.41,0,0,0-40.34-9.81,36.72,36.72,0,0,1,10.9,7.63C160.83,75.84,156.27,99.63,155.58,103Z"/><path d="M187.75,176.55a37,37,0,0,1-18.54,1.09c7.35-2.93,22.39-10.19,32.72-26.17,18.74-29,6.12-62.26,3.27-69.78-14.45-38.09-50.47-52.2-56.7-54.52a102.68,102.68,0,0,1,22.9,19.62c4.26,4.93,37.28,44.29,22.89,85.05-1,2.95-13.88,37.73-42.52,40.35-13.45,1.23-24.34-5.18-29.44-8.73a45,45,0,0,0,27.26,4.37c21.88-3.7,32-23.67,33.8-27.26,8.13-16.08,9-38.55-3.27-54.52A45.55,45.55,0,0,0,163.76,73a43,43,0,0,1,12,22.9c4,24.15-16.24,41.52-17.45,42.53a48.33,48.33,0,0,0,3.27-38.17,49.09,49.09,0,0,1-12,22.9c-3.3,3.52-12.3,13.14-25.08,14.18-15.84,1.28-22.23-11.87-36-9.82-9,1.34-15.46,8.29-19.63,14.18a13.35,13.35,0,0,0-13.09,10.9,19.5,19.5,0,0,1,9.82-2.18,19.07,19.07,0,0,1,5.45,1.09,114.75,114.75,0,0,1,19.63,14.18c14.39,12.9,16.55,21.48,26.17,28.35,7.08,5.05,19.1,9.82,40.34,6.54-8.61,3.13-26.62,8.22-48,3.27-8.61-2-24.11-5.59-36-19.63a56.39,56.39,0,0,1-12-25.08,23.15,23.15,0,0,0,0,14.18,22.29,22.29,0,0,0,4.36,7.63c.23.27-9.76-6.08-12-16.35-1.62-7.47,1.87-11.08,1.09-24-.13-2.21,1.14-6.12-1.09-8.73a6.43,6.43,0,0,0-5.45-2.18A6.73,6.73,0,0,0,42.73,134a41,41,0,0,1,1.09-19.62c2.75-8.66,10.45-21.87,18.54-26.17.89-.47,3.48-1.75,4.36-4.36.77-2.33.58-5.49-1.09-6.55-2.36-1.49-6.71,1.76-8.73,3.28-2.39,1.79-8,6.54-13.08,18.53a77.3,77.3,0,0,0-5.45,20.72q-.55-7.09-1.09-14.18a73.47,73.47,0,0,1,15.26-36,9.83,9.83,0,0,0,7.64,0C63.91,68,67,63.43,65.63,59.88a6.4,6.4,0,0,0-3.27-3.27,25.4,25.4,0,0,1,5.45-3.27,26.16,26.16,0,0,1,10.9-2.19c0,1.5.09,4.53,2.18,6.55,1.69,1.62,3.87,1.82,7.64,2.18a35.06,35.06,0,0,0,6.54,0,18.81,18.81,0,0,0-6.54,4.36C82.86,70.08,83,77.76,83.07,79.5l9.82-3.27h5.45a187.75,187.75,0,0,0-37.62,42c8.6-8.76,16.73-12.47,22.9-14.17,11.37-3.14,19.55-.47,24-6.54,2.33-3.21,3.64-8.84,1.09-13.09a10.87,10.87,0,0,0-5.45-4.36,37,37,0,0,1,12-2.18c6.74-.08,8.84,1.81,14.18,1.09.86-.12,10.87-1.58,13.08-7.63,2.35-6.44-5.29-14.76-10.9-18.54-12.43-8.37-27.81-3.15-30.53-2.18,1.62-2.19,7-9.84,4.36-15.27C102,28.24,86.94,29.23,79.26,31,49.74,37.73,36.12,77.07,33.46,85.5S19.63,129.31,40,165.1c2,3.5,24,40.72,68.7,46.89,37.16,5.12,74.83-13.33,96-46.89A37.06,37.06,0,0,1,187.75,176.55Z"/><path d="M125.6,200.54s-.55-.09-1.55-.24A9.08,9.08,0,0,0,125.6,200.54Z"/><path d="M103.79,192.91a55.62,55.62,0,0,0,20.26,7.39,39.58,39.58,0,0,1-12.63-5.21,43.17,43.17,0,0,1-8.72-7.64C85,168.8,82.32,166.32,79.8,164.56a93.73,93.73,0,0,0-15.26-8.73A158.38,158.38,0,0,1,79.8,168.92C92.48,181.26,94,186.85,103.79,192.91Z"/></g></svg>